<svg width="272" height="71" viewBox="0 0 272 71" fill="none" xmlns="http://www.w3.org/2000/svg">
<path d="M126.821 29.3583L123.329 49.1943H119.225L119.621 46.8543C118.829 47.6703 117.869 48.3183 116.741 48.7983C115.637 49.2543 114.497 49.4823 113.321 49.4823C111.233 49.4823 109.565 48.9183 108.317 47.7903C107.069 46.6623 106.445 45.0663 106.445 43.0023C106.445 42.4503 106.505 41.7903 106.625 41.0223L108.677 29.3583H112.745L110.801 40.4103C110.705 41.0823 110.657 41.5623 110.657 41.8503C110.657 43.1703 111.017 44.1783 111.737 44.8743C112.481 45.5703 113.501 45.9183 114.797 45.9183C116.309 45.9183 117.593 45.4743 118.649 44.5863C119.705 43.6743 120.401 42.3663 120.737 40.6623L122.717 29.3583H126.821ZM134.504 43.6863C134.456 44.0223 134.432 44.2383 134.432 44.3343C134.432 44.8383 134.588 45.2103 134.9 45.4503C135.212 45.6663 135.728 45.7743 136.448 45.7743H138.968L138.356 49.1943H135.116C133.532 49.1943 132.32 48.8823 131.48 48.2583C130.64 47.6103 130.22 46.5903 130.22 45.1983C130.22 44.6703 130.268 44.1663 130.364 43.6863L132.308 32.7063H129.968L130.544 29.3583H132.92L133.784 24.4263H137.924L137.06 29.3583H141.848L141.272 32.7063H136.448L134.504 43.6863ZM148.186 26.7303C147.538 26.7303 147.01 26.5263 146.602 26.1183C146.194 25.7103 145.99 25.1943 145.99 24.5703C145.99 23.7303 146.302 23.0103 146.926 22.4103C147.574 21.7863 148.306 21.4743 149.122 21.4743C149.77 21.4743 150.286 21.6783 150.67 22.0863C151.078 22.4943 151.282 23.0103 151.282 23.6343C151.282 24.4743 150.97 25.2063 150.346 25.8303C149.722 26.4303 149.002 26.7303 148.186 26.7303ZM149.734 29.3583L146.242 49.1943H142.138L145.63 29.3583H149.734ZM179.206 29.0343C181.294 29.0343 182.962 29.5983 184.21 30.7263C185.458 31.8543 186.082 33.4503 186.082 35.5143C186.082 36.0663 186.022 36.7263 185.902 37.4943L183.814 49.1943H179.746L181.726 38.1063C181.822 37.4343 181.87 36.9543 181.87 36.6663C181.87 35.3463 181.498 34.3383 180.754 33.6423C180.034 32.9463 179.026 32.5983 177.73 32.5983C176.17 32.5983 174.85 33.0783 173.77 34.0383C172.714 34.9743 172.042 36.3303 171.754 38.1063L169.774 49.1943H165.706L167.686 38.1063C167.782 37.4343 167.83 36.9543 167.83 36.6663C167.83 35.3463 167.458 34.3383 166.714 33.6423C165.994 32.9463 164.986 32.5983 163.69 32.5983C162.13 32.5983 160.81 33.0783 159.73 34.0383C158.674 34.9743 158.002 36.3303 157.714 38.1063V37.9983L155.734 49.1943H151.63L155.122 29.3583H159.226L158.83 31.6623C159.622 30.8463 160.57 30.2103 161.674 29.7543C162.802 29.2743 163.966 29.0343 165.166 29.0343C166.75 29.0343 168.106 29.3703 169.234 30.0423C170.386 30.7143 171.19 31.6863 171.646 32.9583C172.438 31.7583 173.53 30.8103 174.922 30.1143C176.314 29.3943 177.742 29.0343 179.206 29.0343ZM197.713 49.5183C196.033 49.5183 194.557 49.1703 193.285 48.4743C192.013 47.7783 191.017 46.7943 190.297 45.5223C189.601 44.2503 189.253 42.7983 189.253 41.1663C189.253 38.9343 189.769 36.8943 190.801 35.0463C191.857 33.1983 193.297 31.7343 195.121 30.6543C196.969 29.5743 199.021 29.0343 201.277 29.0343C202.957 29.0343 204.445 29.3943 205.741 30.1143C207.037 30.8103 208.045 31.7943 208.765 33.0663C209.509 34.3143 209.881 35.7663 209.881 37.4223C209.881 39.6543 209.341 41.6943 208.261 43.5423C207.181 45.3903 205.717 46.8543 203.869 47.9343C202.021 48.9903 199.969 49.5183 197.713 49.5183ZM198.217 46.0623C199.585 46.0623 200.833 45.6783 201.961 44.9103C203.113 44.1183 204.013 43.0863 204.661 41.8143C205.309 40.5183 205.633 39.1383 205.633 37.6743C205.633 36.0183 205.165 34.7463 204.229 33.8583C203.293 32.9463 202.117 32.4903 200.701 32.4903C199.309 32.4903 198.061 32.8863 196.957 33.6783C195.877 34.4463 195.025 35.4903 194.401 36.8103C193.801 38.1063 193.501 39.4983 193.501 40.9863C193.501 42.5943 193.933 43.8423 194.797 44.7303C195.685 45.6183 196.825 46.0623 198.217 46.0623Z" fill="#E0E0E0"/>
<g filter="url(#filter0_i_35_8)">
<path d="M94.95 64L69.12 35.38V64H60.93V1.27H69.12V30.34L95.04 1.27H105.39L76.95 32.68L105.66 64H94.95Z" fill="#E0E0E0"/>
</g>
<g filter="url(#filter1_d_35_8)">
<path d="M49.1068 5.75274L41.6587 0.0599365L0 31.901L41.6587 63.7421L49.1068 58.0493L14.8962 31.901L49.1068 5.75274Z" fill="#626262"/>
</g>
<g filter="url(#filter2_d_35_8)">
<path d="M216.178 58.3072L223.626 64L265.285 32.1589L223.626 0.317805L216.178 6.01061L250.389 32.1589L216.178 58.3072Z" fill="#626262"/>
</g>
<defs>
<filter id="filter0_i_35_8" x="60.9301" y="1.27002" width="44.73" height="62.73" filterUnits="userSpaceOnUse" color-interpolation-filters="sRGB">
<feFlood flood-opacity="0" result="BackgroundImageFix"/>
<feBlend mode="normal" in="SourceGraphic" in2="BackgroundImageFix" result="shape"/>
<feColorMatrix in="SourceAlpha" type="matrix" values="0 0 0 0 0 0 0 0 0 0 0 0 0 0 0 0 0 0 127 0" result="hardAlpha"/>
<feOffset dy="-5"/>
<feComposite in2="hardAlpha" operator="arithmetic" k2="-1" k3="1"/>
<feColorMatrix type="matrix" values="0 0 0 0 0.408333 0 0 0 0 0.408333 0 0 0 0 0.408333 0 0 0 0.74 0"/>
<feBlend mode="normal" in2="shape" result="effect1_innerShadow_35_8"/>
</filter>
<filter id="filter1_d_35_8" x="0" y="0.0599365" width="55.1068" height="70.6822" filterUnits="userSpaceOnUse" color-interpolation-filters="sRGB">
<feFlood flood-opacity="0" result="BackgroundImageFix"/>
<feColorMatrix in="SourceAlpha" type="matrix" values="0 0 0 0 0 0 0 0 0 0 0 0 0 0 0 0 0 0 127 0" result="hardAlpha"/>
<feOffset dx="4" dy="5"/>
<feGaussianBlur stdDeviation="1"/>
<feComposite in2="hardAlpha" operator="out"/>
<feColorMatrix type="matrix" values="0 0 0 0 0 0 0 0 0 0 0 0 0 0 0 0 0 0 0.5 0"/>
<feBlend mode="normal" in2="BackgroundImageFix" result="effect1_dropShadow_35_8"/>
<feBlend mode="normal" in="SourceGraphic" in2="effect1_dropShadow_35_8" result="shape"/>
</filter>
<filter id="filter2_d_35_8" x="216.178" y="0.31781" width="55.1068" height="70.6822" filterUnits="userSpaceOnUse" color-interpolation-filters="sRGB">
<feFlood flood-opacity="0" result="BackgroundImageFix"/>
<feColorMatrix in="SourceAlpha" type="matrix" values="0 0 0 0 0 0 0 0 0 0 0 0 0 0 0 0 0 0 127 0" result="hardAlpha"/>
<feOffset dx="4" dy="5"/>
<feGaussianBlur stdDeviation="1"/>
<feComposite in2="hardAlpha" operator="out"/>
<feColorMatrix type="matrix" values="0 0 0 0 0 0 0 0 0 0 0 0 0 0 0 0 0 0 0.5 0"/>
<feBlend mode="normal" in2="BackgroundImageFix" result="effect1_dropShadow_35_8"/>
<feBlend mode="normal" in="SourceGraphic" in2="effect1_dropShadow_35_8" result="shape"/>
</filter>
</defs>
</svg>
