<svg width="67" height="67" viewBox="0 0 67 67" fill="none" xmlns="http://www.w3.org/2000/svg">
<path d="M19.636 30.5186C19.4395 30.2612 19.1799 30.0589 18.8823 29.9313C18.5847 29.8038 18.2591 29.7552 17.9372 29.7904C17.6153 29.8256 17.308 29.9434 17.045 30.1323C16.782 30.3212 16.5722 30.5748 16.436 30.8686L0.206018 63.3286C0.0577694 63.624 -0.0125175 63.9525 0.00182774 64.2828C0.016173 64.613 0.114675 64.9342 0.287985 65.2157C0.461295 65.4972 0.703665 65.7297 0.992094 65.8912C1.28052 66.0528 1.60544 66.1379 1.93602 66.1386H24.536C24.9019 66.1456 25.2617 66.0451 25.571 65.8495C25.8803 65.654 26.1254 65.3721 26.276 65.0386C31.146 55.0386 28.196 39.6686 19.636 30.5186Z" fill="url(#paint0_linear_0_1)"/>
<path d="M31.5461 1.03855C27.5001 7.26276 25.1423 14.4321 24.704 21.8428C24.2657 29.2535 25.762 36.6508 29.0461 43.3085L39.9961 65.0385C40.1557 65.3614 40.4021 65.6335 40.7077 65.8242C41.0132 66.015 41.3659 66.1169 41.7261 66.1185H64.3261C64.6428 66.0924 64.9488 65.9911 65.2187 65.8231C65.4885 65.6551 65.7144 65.4252 65.8777 65.1525C66.0409 64.8798 66.1368 64.572 66.1574 64.2548C66.178 63.9376 66.1227 63.6201 65.9961 63.3285L34.8461 1.03855C34.6969 0.727523 34.4628 0.465 34.1709 0.281249C33.8789 0.097497 33.541 0 33.1961 0C32.8511 0 32.5132 0.097497 32.2212 0.281249C31.9293 0.465 31.6952 0.727523 31.5461 1.03855Z" fill="#2684FF"/>
<defs>
<linearGradient id="paint0_linear_0_1" x1="28.536" y1="35.5286" x2="11.406" y2="65.2086" gradientUnits="userSpaceOnUse">
<stop stop-color="#0052CC"/>
<stop offset="0.92" stop-color="#2684FF"/>
</linearGradient>
</defs>
</svg>
