<svg width="321" height="349" viewBox="0 0 321 349" fill="none" xmlns="http://www.w3.org/2000/svg">
<path fill-rule="evenodd" clip-rule="evenodd" d="M320.971 0.676514H0.0294189L26.7745 308.471L160.5 348.618L294.225 308.471L320.971 0.676514Z" fill="#E44D26"/>
<path fill-rule="evenodd" clip-rule="evenodd" d="M119.666 269.448L75.7287 256.258L72.1449 215.035L70.9627 201.412H113.755L116.087 228.225L160.5 241.559V281.706L119.666 269.448ZM160.5 94.3529H104.453L107.94 134.5H160.5V174.647H111.428H68.6359L65.1483 134.5L61.6608 94.3529L58.1732 54.2058H100.965H160.5V94.3529Z" fill="#EBEBEB"/>
<path fill-rule="evenodd" clip-rule="evenodd" d="M276.782 201.412L279.109 174.647L282.597 134.5L286.084 94.3529L289.572 54.2059L291.899 27.4412H160.5V321.853L241.693 297.476L269.155 289.232L272.738 248.009L276.322 206.786L276.782 201.412Z" fill="#F16529"/>
<path fill-rule="evenodd" clip-rule="evenodd" d="M160.5 94.3529H216.547H259.339L262.827 54.2058H220.035H160.5V94.3529ZM209.572 174.647H160.5V134.5H213.059H255.852L252.364 174.647L250.037 201.412L248.855 215.035L245.271 256.258L201.334 269.448L160.5 281.706V241.559L204.918 228.225L207.245 201.412L209.572 174.647Z" fill="white"/>
</svg>
